<svg width="428.401" height="109.001" viewBox="0 0 428.401 109.001" xmlns="http://www.w3.org/2000/svg"><g id="svgGroup" stroke-linecap="round" fill-rule="evenodd" font-size="9pt" stroke="#000" stroke-width="0.25mm" fill="black" style="stroke:#000;stroke-width:0.25mm;fill:black"><path d="M 20.2 94.3 L 31.3 49.9 Q 32.195 46.412 32.729 44.043 A 103.289 103.289 0 0 0 32.85 43.5 Q 33.4 41 33.4 39.6 A 3.919 3.919 0 0 0 33.34 38.877 Q 33.112 37.673 32.034 37.605 A 2.103 2.103 0 0 0 31.9 37.6 Q 31.079 37.6 30.145 38.186 A 6.706 6.706 0 0 0 29.5 38.65 A 20.643 20.643 0 0 0 27.737 40.26 A 24.62 24.62 0 0 0 26.95 41.1 Q 25.7 42.5 24.7 43.9 Q 23.88 45.049 23.463 45.794 A 7.524 7.524 0 0 0 23.3 46.1 L 20.4 44.3 A 26.115 26.115 0 0 1 21.532 42.43 Q 22.474 41.004 23.75 39.4 Q 25.9 36.7 28.6 34.4 A 32.329 32.329 0 0 1 33.12 31.158 A 29.074 29.074 0 0 1 34.2 30.55 Q 36.858 29.13 39.264 29.011 A 8.859 8.859 0 0 1 39.7 29 A 6.373 6.373 0 0 1 41.77 29.308 Q 44.7 30.313 44.7 34.6 A 21.517 21.517 0 0 1 44.569 36.868 Q 44.319 39.205 43.599 42.276 A 72.747 72.747 0 0 1 43.35 43.3 Q 42 48.7 39.9 56.3 L 31.6 86.4 Q 30.4 90.7 28.15 94.75 Q 25.9 98.8 22.95 101.95 A 28.67 28.67 0 0 1 18.681 105.714 A 25.005 25.005 0 0 1 16.6 107.05 A 14.712 14.712 0 0 1 12.382 108.703 A 13.123 13.123 0 0 1 9.6 109 Q 5.4 109 2.7 106.8 A 7.871 7.871 0 0 1 1.003 104.929 A 6.445 6.445 0 0 1 0 101.4 Q 0 99.22 0.848 97.757 A 5.071 5.071 0 0 1 1.3 97.1 A 4.238 4.238 0 0 1 4.273 95.532 A 6.05 6.05 0 0 1 4.9 95.5 Q 6.308 95.5 7.222 96.017 A 2.944 2.944 0 0 1 8 96.65 Q 9 97.8 9.65 99.25 Q 10.3 100.7 11 101.85 A 2.393 2.393 0 0 0 11.743 102.634 Q 12.204 102.932 12.812 102.988 A 3.156 3.156 0 0 0 13.1 103 Q 15.451 103 17.273 100.699 A 9.508 9.508 0 0 0 17.35 100.6 Q 18.954 98.52 19.919 95.313 A 25.487 25.487 0 0 0 20.2 94.3 Z M 205.5 64.9 L 209 66.9 Q 205.432 73.952 200.889 78.189 A 26.971 26.971 0 0 1 199.25 79.6 A 21.28 21.28 0 0 1 193.929 82.74 A 17.454 17.454 0 0 1 187.4 84 Q 180.9 84 177 79.55 A 15.193 15.193 0 0 1 173.672 72.934 Q 173.136 70.683 173.103 68.053 A 27.686 27.686 0 0 1 173.1 67.7 A 32.22 32.22 0 0 1 173.959 60.418 A 37.013 37.013 0 0 1 174.4 58.7 Q 175.7 54.1 177.9 49.8 Q 180.1 45.5 183.1 41.7 A 44.841 44.841 0 0 1 187.62 36.754 A 39.076 39.076 0 0 1 189.5 35.1 A 33.003 33.003 0 0 1 194.294 31.794 A 28.791 28.791 0 0 1 196.55 30.65 A 19.168 19.168 0 0 1 200.386 29.363 A 15.619 15.619 0 0 1 203.7 29 A 14.522 14.522 0 0 1 207.304 29.425 A 10.719 10.719 0 0 1 211.6 31.6 A 8.871 8.871 0 0 1 213.76 34.199 A 8.123 8.123 0 0 1 214.7 38.1 A 7.017 7.017 0 0 1 214.479 39.909 A 5.172 5.172 0 0 1 213.25 42.15 A 4.824 4.824 0 0 1 209.872 43.69 A 6.529 6.529 0 0 1 209.5 43.7 A 5.947 5.947 0 0 1 207.741 43.452 A 4.758 4.758 0 0 1 205.75 42.25 A 4.819 4.819 0 0 1 204.301 38.766 A 6.039 6.039 0 0 1 204.3 38.7 Q 204.3 37.774 204.504 37.101 A 3.165 3.165 0 0 1 204.7 36.6 A 4.272 4.272 0 0 0 204.959 35.967 Q 205.1 35.516 205.1 35.1 Q 205.1 33.776 202.952 33.704 A 7.584 7.584 0 0 0 202.7 33.7 Q 199.923 33.7 197.074 35.897 A 17.039 17.039 0 0 0 196 36.8 A 27.549 27.549 0 0 0 192.571 40.602 A 37.379 37.379 0 0 0 189.85 44.8 A 48.876 48.876 0 0 0 186.542 52.081 A 58.335 58.335 0 0 0 185.35 55.75 A 43.193 43.193 0 0 0 183.6 67.8 A 20.171 20.171 0 0 0 183.8 70.73 Q 184.023 72.246 184.495 73.486 A 9.197 9.197 0 0 0 185.45 75.35 A 6.387 6.387 0 0 0 187.231 77.156 Q 188.532 78.012 190.242 78.092 A 7.644 7.644 0 0 0 190.6 78.1 A 7.254 7.254 0 0 0 192.732 77.766 A 9.929 9.929 0 0 0 194.35 77.1 A 17.251 17.251 0 0 0 196.436 75.826 A 23.097 23.097 0 0 0 198.3 74.35 Q 200.3 72.6 202.15 70.2 A 34.354 34.354 0 0 0 205.023 65.794 A 38.654 38.654 0 0 0 205.5 64.9 Z M 383.4 45.2 L 380.8 43.9 A 17.767 17.767 0 0 1 382.136 41.443 Q 382.883 40.283 383.865 39.091 A 30.274 30.274 0 0 1 384.15 38.75 Q 386.4 36.1 389.05 33.95 Q 391.7 31.8 394.4 30.4 A 16.315 16.315 0 0 1 396.097 29.632 Q 396.953 29.307 397.725 29.149 A 6.875 6.875 0 0 1 399.1 29 A 5.02 5.02 0 0 1 400.505 29.185 A 3.543 3.543 0 0 1 402.6 30.8 Q 403.532 32.325 403.675 35.427 A 25.579 25.579 0 0 1 403.7 36.6 A 31.327 31.327 0 0 1 403.569 39.513 A 28.695 28.695 0 0 1 403.55 39.7 Q 403.436 40.849 403.174 42.29 A 51.463 51.463 0 0 1 403 43.2 L 403.3 43.5 A 22.819 22.819 0 0 1 405.364 39.649 A 27.803 27.803 0 0 1 406.7 37.8 Q 408.9 35 411.45 32.85 Q 414 30.7 416.65 29.35 Q 418.98 28.164 421.039 28.02 A 8.073 8.073 0 0 1 421.6 28 A 7.486 7.486 0 0 1 424.11 28.407 A 6.532 6.532 0 0 1 426.45 29.85 A 6.008 6.008 0 0 1 428.398 34.212 A 7.356 7.356 0 0 1 428.4 34.4 A 6.727 6.727 0 0 1 428.085 36.503 A 5.636 5.636 0 0 1 426.75 38.7 A 5.532 5.532 0 0 1 423.077 40.379 A 7.487 7.487 0 0 1 422.5 40.4 Q 420.9 40.4 419.95 39.8 Q 419 39.2 418.3 38.55 Q 417.6 37.9 417 37.3 A 2.024 2.024 0 0 0 415.558 36.701 A 2.657 2.657 0 0 0 415.5 36.7 Q 413.831 36.7 411.699 38.668 A 16.74 16.74 0 0 0 411.1 39.25 A 27.74 27.74 0 0 0 409.197 41.423 Q 407.588 43.45 405.9 46.2 A 76.592 76.592 0 0 0 403.297 50.815 Q 402.089 53.128 400.892 55.746 A 124.199 124.199 0 0 0 400.55 56.5 A 119.771 119.771 0 0 0 396.901 65.651 A 139.186 139.186 0 0 0 395.7 69.2 L 391.2 83 L 381.9 83 L 388.4 62.3 Q 390.206 56.599 391.424 52.749 A 28250.403 28250.403 0 0 0 391.55 52.35 A 228.022 228.022 0 0 0 392.141 50.457 Q 392.92 47.918 393.429 46.018 A 78.166 78.166 0 0 0 393.5 45.75 Q 394.077 43.566 394.349 42.163 A 22.207 22.207 0 0 0 394.45 41.6 Q 394.642 40.452 394.687 39.538 A 10.979 10.979 0 0 0 394.7 39 A 4.776 4.776 0 0 0 394.643 38.225 Q 394.407 36.8 393.2 36.8 A 3.208 3.208 0 0 0 392.46 36.895 Q 391.751 37.064 390.872 37.534 A 11.02 11.02 0 0 0 390.75 37.6 Q 389.3 38.4 387.9 39.6 A 22.471 22.471 0 0 0 385.407 42.114 A 24.652 24.652 0 0 0 385.25 42.3 A 14.83 14.83 0 0 0 384.281 43.594 Q 383.738 44.413 383.4 45.2 Z M 57.346 39.815 A 15.27 15.27 0 0 0 56.7 44.3 A 17.957 17.957 0 0 0 56.901 47.028 A 13.687 13.687 0 0 0 58.7 52.1 Q 60.7 55.4 63.1 58.35 Q 65.5 61.3 67.5 64.4 A 12.194 12.194 0 0 1 68.814 67.122 A 13.608 13.608 0 0 1 69.5 71.5 Q 69.5 72.94 69.199 74.143 A 7.1 7.1 0 0 1 67.4 77.45 A 6.862 6.862 0 0 1 64.142 79.311 A 9.725 9.725 0 0 1 61.7 79.6 Q 59.4 79.6 58.65 78.55 A 2.128 2.128 0 0 1 58.623 78.511 Q 58.069 77.696 57.766 75.682 A 25.069 25.069 0 0 1 57.6 74.3 A 13.909 13.909 0 0 0 57.405 72.979 Q 56.834 70.126 55.148 69.051 A 4.456 4.456 0 0 0 52.7 68.4 A 6.045 6.045 0 0 0 52.26 68.416 A 4.383 4.383 0 0 0 49.05 70.05 Q 48.154 71.146 47.853 72.793 A 10.059 10.059 0 0 0 47.7 74.6 A 7.94 7.94 0 0 0 48.985 79.075 A 9.136 9.136 0 0 0 51.25 81.4 A 11.52 11.52 0 0 0 53.146 82.523 Q 56.277 84 60.8 84 Q 64.2 84 67.4 82.7 Q 70.6 81.4 73.05 79.15 Q 75.5 76.9 76.95 73.9 Q 78.4 70.9 78.4 67.5 A 22.23 22.23 0 0 0 78.115 63.863 A 16.604 16.604 0 0 0 76.45 58.8 A 51.063 51.063 0 0 0 76.081 58.112 A 46.029 46.029 0 0 0 72.1 52 A 141.537 141.537 0 0 1 70.364 49.711 A 117.128 117.128 0 0 1 67.75 46.05 Q 65.8 43.2 65.8 39.9 A 9.257 9.257 0 0 1 65.906 38.476 A 6.897 6.897 0 0 1 67.3 35.2 A 6.314 6.314 0 0 1 67.649 34.794 A 4.435 4.435 0 0 1 71 33.3 Q 72.9 33.3 73.7 34.7 A 25.898 25.898 0 0 1 74.191 35.6 A 30.347 30.347 0 0 1 75.2 37.75 A 16.134 16.134 0 0 0 75.334 38.057 A 14.447 14.447 0 0 0 76.9 40.75 A 2.96 2.96 0 0 0 77.747 41.523 Q 78.277 41.845 78.979 41.988 A 6.152 6.152 0 0 0 80.2 42.1 A 5.567 5.567 0 0 0 81.313 41.995 A 3.795 3.795 0 0 0 83.35 40.9 Q 84.105 40.113 84.365 38.938 A 6.202 6.202 0 0 0 84.5 37.6 A 7.29 7.29 0 0 0 83.357 33.558 A 8.421 8.421 0 0 0 81.3 31.4 Q 78.1 29 73.3 29 A 21.474 21.474 0 0 0 71.752 29.055 A 18.076 18.076 0 0 0 66.65 30.15 A 17.999 17.999 0 0 0 65.718 30.532 A 15.432 15.432 0 0 0 61.4 33.35 Q 59.2 35.4 57.95 38.2 A 13.97 13.97 0 0 0 57.346 39.815 Z M 141.946 39.815 A 15.27 15.27 0 0 0 141.3 44.3 A 17.957 17.957 0 0 0 141.501 47.028 A 13.687 13.687 0 0 0 143.3 52.1 Q 145.3 55.4 147.7 58.35 Q 150.1 61.3 152.1 64.4 A 12.194 12.194 0 0 1 153.414 67.122 A 13.608 13.608 0 0 1 154.1 71.5 Q 154.1 72.94 153.799 74.143 A 7.1 7.1 0 0 1 152 77.45 A 6.862 6.862 0 0 1 148.742 79.311 A 9.725 9.725 0 0 1 146.3 79.6 Q 144 79.6 143.25 78.55 A 2.128 2.128 0 0 1 143.223 78.511 Q 142.669 77.696 142.366 75.682 A 25.069 25.069 0 0 1 142.2 74.3 A 13.909 13.909 0 0 0 142.005 72.979 Q 141.434 70.126 139.748 69.051 A 4.456 4.456 0 0 0 137.3 68.4 A 6.045 6.045 0 0 0 136.86 68.416 A 4.383 4.383 0 0 0 133.65 70.05 Q 132.754 71.146 132.453 72.793 A 10.059 10.059 0 0 0 132.3 74.6 A 7.94 7.94 0 0 0 133.585 79.075 A 9.136 9.136 0 0 0 135.85 81.4 A 11.52 11.52 0 0 0 137.746 82.523 Q 140.877 84 145.4 84 Q 148.8 84 152 82.7 Q 155.2 81.4 157.65 79.15 Q 160.1 76.9 161.55 73.9 Q 163 70.9 163 67.5 A 22.23 22.23 0 0 0 162.715 63.863 A 16.604 16.604 0 0 0 161.05 58.8 A 51.063 51.063 0 0 0 160.681 58.112 A 46.029 46.029 0 0 0 156.7 52 A 141.537 141.537 0 0 1 154.964 49.711 A 117.128 117.128 0 0 1 152.35 46.05 Q 150.4 43.2 150.4 39.9 A 9.257 9.257 0 0 1 150.506 38.476 A 6.897 6.897 0 0 1 151.9 35.2 A 6.314 6.314 0 0 1 152.249 34.794 A 4.435 4.435 0 0 1 155.6 33.3 Q 157.5 33.3 158.3 34.7 A 25.898 25.898 0 0 1 158.791 35.6 A 30.347 30.347 0 0 1 159.8 37.75 A 16.134 16.134 0 0 0 159.934 38.057 A 14.447 14.447 0 0 0 161.5 40.75 A 2.96 2.96 0 0 0 162.347 41.523 Q 162.877 41.845 163.579 41.988 A 6.152 6.152 0 0 0 164.8 42.1 A 5.567 5.567 0 0 0 165.913 41.995 A 3.795 3.795 0 0 0 167.95 40.9 Q 168.705 40.113 168.965 38.938 A 6.202 6.202 0 0 0 169.1 37.6 A 7.29 7.29 0 0 0 167.957 33.558 A 8.421 8.421 0 0 0 165.9 31.4 Q 162.7 29 157.9 29 A 21.474 21.474 0 0 0 156.352 29.055 A 18.076 18.076 0 0 0 151.25 30.15 A 17.999 17.999 0 0 0 150.318 30.532 A 15.432 15.432 0 0 0 146 33.35 Q 143.8 35.4 142.55 38.2 A 13.97 13.97 0 0 0 141.946 39.815 Z M 258.546 39.815 A 15.27 15.27 0 0 0 257.9 44.3 A 17.957 17.957 0 0 0 258.101 47.028 A 13.687 13.687 0 0 0 259.9 52.1 Q 261.9 55.4 264.3 58.35 Q 266.7 61.3 268.7 64.4 A 12.194 12.194 0 0 1 270.014 67.122 A 13.608 13.608 0 0 1 270.7 71.5 Q 270.7 72.94 270.399 74.143 A 7.1 7.1 0 0 1 268.6 77.45 A 6.862 6.862 0 0 1 265.342 79.311 A 9.725 9.725 0 0 1 262.9 79.6 Q 260.6 79.6 259.85 78.55 A 2.128 2.128 0 0 1 259.823 78.511 Q 259.269 77.696 258.966 75.682 A 25.069 25.069 0 0 1 258.8 74.3 A 13.909 13.909 0 0 0 258.605 72.979 Q 258.034 70.126 256.348 69.051 A 4.456 4.456 0 0 0 253.9 68.4 A 6.045 6.045 0 0 0 253.46 68.416 A 4.383 4.383 0 0 0 250.25 70.05 Q 249.354 71.146 249.053 72.793 A 10.059 10.059 0 0 0 248.9 74.6 A 7.94 7.94 0 0 0 250.185 79.075 A 9.136 9.136 0 0 0 252.45 81.4 A 11.52 11.52 0 0 0 254.346 82.523 Q 257.477 84 262 84 Q 265.4 84 268.6 82.7 Q 271.8 81.4 274.25 79.15 Q 276.7 76.9 278.15 73.9 Q 279.6 70.9 279.6 67.5 A 22.23 22.23 0 0 0 279.315 63.863 A 16.604 16.604 0 0 0 277.65 58.8 A 51.063 51.063 0 0 0 277.281 58.112 A 46.029 46.029 0 0 0 273.3 52 A 141.537 141.537 0 0 1 271.564 49.711 A 117.128 117.128 0 0 1 268.95 46.05 Q 267 43.2 267 39.9 A 9.257 9.257 0 0 1 267.106 38.476 A 6.897 6.897 0 0 1 268.5 35.2 A 6.314 6.314 0 0 1 268.849 34.794 A 4.435 4.435 0 0 1 272.2 33.3 Q 274.1 33.3 274.9 34.7 A 25.898 25.898 0 0 1 275.391 35.6 A 30.347 30.347 0 0 1 276.4 37.75 A 16.134 16.134 0 0 0 276.534 38.057 A 14.447 14.447 0 0 0 278.1 40.75 A 2.96 2.96 0 0 0 278.947 41.523 Q 279.477 41.845 280.179 41.988 A 6.152 6.152 0 0 0 281.4 42.1 A 5.567 5.567 0 0 0 282.513 41.995 A 3.795 3.795 0 0 0 284.55 40.9 Q 285.305 40.113 285.565 38.938 A 6.202 6.202 0 0 0 285.7 37.6 A 7.29 7.29 0 0 0 284.557 33.558 A 8.421 8.421 0 0 0 282.5 31.4 Q 279.3 29 274.5 29 A 21.474 21.474 0 0 0 272.952 29.055 A 18.076 18.076 0 0 0 267.85 30.15 A 17.999 17.999 0 0 0 266.918 30.532 A 15.432 15.432 0 0 0 262.6 33.35 Q 260.4 35.4 259.15 38.2 A 13.97 13.97 0 0 0 258.546 39.815 Z M 296.646 39.815 A 15.27 15.27 0 0 0 296 44.3 A 17.957 17.957 0 0 0 296.201 47.028 A 13.687 13.687 0 0 0 298 52.1 Q 300 55.4 302.4 58.35 Q 304.8 61.3 306.8 64.4 A 12.194 12.194 0 0 1 308.114 67.122 A 13.608 13.608 0 0 1 308.8 71.5 Q 308.8 72.94 308.499 74.143 A 7.1 7.1 0 0 1 306.7 77.45 A 6.862 6.862 0 0 1 303.442 79.311 A 9.725 9.725 0 0 1 301 79.6 Q 298.7 79.6 297.95 78.55 A 2.128 2.128 0 0 1 297.923 78.511 Q 297.369 77.696 297.066 75.682 A 25.069 25.069 0 0 1 296.9 74.3 A 13.909 13.909 0 0 0 296.705 72.979 Q 296.134 70.126 294.448 69.051 A 4.456 4.456 0 0 0 292 68.4 A 6.045 6.045 0 0 0 291.56 68.416 A 4.383 4.383 0 0 0 288.35 70.05 Q 287.454 71.146 287.153 72.793 A 10.059 10.059 0 0 0 287 74.6 A 7.94 7.94 0 0 0 288.285 79.075 A 9.136 9.136 0 0 0 290.55 81.4 A 11.52 11.52 0 0 0 292.446 82.523 Q 295.577 84 300.1 84 Q 303.5 84 306.7 82.7 Q 309.9 81.4 312.35 79.15 Q 314.8 76.9 316.25 73.9 Q 317.7 70.9 317.7 67.5 A 22.23 22.23 0 0 0 317.415 63.863 A 16.604 16.604 0 0 0 315.75 58.8 A 51.063 51.063 0 0 0 315.381 58.112 A 46.029 46.029 0 0 0 311.4 52 A 141.537 141.537 0 0 1 309.664 49.711 A 117.128 117.128 0 0 1 307.05 46.05 Q 305.1 43.2 305.1 39.9 A 9.257 9.257 0 0 1 305.206 38.476 A 6.897 6.897 0 0 1 306.6 35.2 A 6.314 6.314 0 0 1 306.949 34.794 A 4.435 4.435 0 0 1 310.3 33.3 Q 312.2 33.3 313 34.7 A 25.898 25.898 0 0 1 313.491 35.6 A 30.347 30.347 0 0 1 314.5 37.75 A 16.134 16.134 0 0 0 314.634 38.057 A 14.447 14.447 0 0 0 316.2 40.75 A 2.96 2.96 0 0 0 317.047 41.523 Q 317.577 41.845 318.279 41.988 A 6.152 6.152 0 0 0 319.5 42.1 A 5.567 5.567 0 0 0 320.613 41.995 A 3.795 3.795 0 0 0 322.65 40.9 Q 323.405 40.113 323.665 38.938 A 6.202 6.202 0 0 0 323.8 37.6 A 7.29 7.29 0 0 0 322.657 33.558 A 8.421 8.421 0 0 0 320.6 31.4 Q 317.4 29 312.6 29 A 21.474 21.474 0 0 0 311.052 29.055 A 18.076 18.076 0 0 0 305.95 30.15 A 17.999 17.999 0 0 0 305.018 30.532 A 15.432 15.432 0 0 0 300.7 33.35 Q 298.5 35.4 297.25 38.2 A 13.97 13.97 0 0 0 296.646 39.815 Z M 224.4 62.8 L 228.9 50 Q 230.237 46.278 230.844 43.923 A 31.055 31.055 0 0 0 230.9 43.7 Q 231.5 41.3 231.5 39.9 Q 231.5 38.875 231.259 38.359 A 1.077 1.077 0 0 0 231.05 38.05 Q 230.6 37.6 230.1 37.6 Q 229.279 37.6 228.345 38.186 A 6.706 6.706 0 0 0 227.7 38.65 A 23.234 23.234 0 0 0 226.075 40.1 A 28.419 28.419 0 0 0 225.1 41.1 A 29.759 29.759 0 0 0 223.455 43.025 A 25.44 25.44 0 0 0 222.8 43.9 Q 221.98 45.049 221.563 45.794 A 7.524 7.524 0 0 0 221.4 46.1 L 218.5 44.3 A 26.115 26.115 0 0 1 219.632 42.43 Q 220.574 41.004 221.85 39.4 Q 224 36.7 226.7 34.4 A 32.329 32.329 0 0 1 231.22 31.158 A 29.074 29.074 0 0 1 232.3 30.55 Q 234.958 29.13 237.364 29.011 A 8.859 8.859 0 0 1 237.8 29 Q 239.656 29 240.823 29.799 A 3.764 3.764 0 0 1 241.55 30.45 A 3.954 3.954 0 0 1 242.223 31.62 Q 242.8 33.118 242.8 35.7 A 13.191 13.191 0 0 1 242.63 37.708 Q 242.306 39.791 241.372 42.572 A 51.775 51.775 0 0 1 241.05 43.5 Q 239.485 47.884 237.079 54.507 A 4234.055 4234.055 0 0 1 236.5 56.1 L 232.8 66.2 Q 232.602 66.696 232.257 67.732 A 76.644 76.644 0 0 0 232.25 67.75 A 85.184 85.184 0 0 0 231.725 69.382 A 96.327 96.327 0 0 0 231.55 69.95 A 32.767 32.767 0 0 0 231.015 71.925 A 29.796 29.796 0 0 0 230.95 72.2 A 13.55 13.55 0 0 0 230.819 72.849 Q 230.704 73.498 230.701 73.969 A 3.992 3.992 0 0 0 230.7 74 Q 230.7 74.9 231.2 75.6 A 1.596 1.596 0 0 0 232.129 76.221 Q 232.431 76.3 232.8 76.3 Q 234.3 76.3 235.9 75.05 A 22.043 22.043 0 0 0 238.053 73.119 A 26.093 26.093 0 0 0 239 72.1 Q 240.5 70.4 241.7 68.65 Q 242.69 67.208 243.271 66.275 A 26.006 26.006 0 0 0 243.5 65.9 L 246.5 67.6 A 32.697 32.697 0 0 1 245.288 69.796 Q 244.625 70.901 243.81 72.095 A 58.949 58.949 0 0 1 243.25 72.9 Q 241.2 75.8 238.6 78.25 Q 236 80.7 232.9 82.35 A 13.788 13.788 0 0 1 228.189 83.891 A 12.989 12.989 0 0 1 226.5 84 A 8.919 8.919 0 0 1 224.849 83.858 Q 223.925 83.683 223.206 83.296 A 4.289 4.289 0 0 1 222.15 82.5 Q 220.758 81.06 220.703 77.777 A 16.325 16.325 0 0 1 220.7 77.5 A 20.385 20.385 0 0 1 221.001 74.096 A 26.94 26.94 0 0 1 221.65 71.25 A 93.305 93.305 0 0 1 222.404 68.74 Q 222.812 67.444 223.311 65.959 A 222.528 222.528 0 0 1 224.4 62.8 Z M 345.1 84 Q 341.7 84 338.75 82.65 Q 335.8 81.3 333.6 78.7 A 18.077 18.077 0 0 1 331.202 75.001 A 23.041 23.041 0 0 1 330.1 72.35 A 23.185 23.185 0 0 1 329.015 67.562 A 30.139 30.139 0 0 1 328.8 63.9 Q 328.8 57.4 331.25 51.1 Q 333.7 44.8 337.7 39.9 A 33.981 33.981 0 0 1 345.581 32.78 A 31.986 31.986 0 0 1 346.85 32 Q 352 29 357.5 29 Q 361.1 29 364.15 30.35 Q 367.2 31.7 369.35 34.25 A 18.292 18.292 0 0 1 371.953 38.382 A 22.332 22.332 0 0 1 372.75 40.35 A 21.998 21.998 0 0 1 373.866 45.459 A 27.227 27.227 0 0 1 374 48.2 A 33.887 33.887 0 0 1 372.286 58.703 A 39.717 39.717 0 0 1 371.5 60.9 A 44.342 44.342 0 0 1 365.202 72.08 A 41.964 41.964 0 0 1 364.95 72.4 A 36.86 36.86 0 0 1 356.982 79.909 A 34.56 34.56 0 0 1 355.7 80.75 Q 350.5 84 345.1 84 Z M 345.7 79 Q 349.1 79 352.45 75.5 Q 355.8 72 358.45 66.65 A 59.364 59.364 0 0 0 362.039 57.521 A 68.093 68.093 0 0 0 362.75 55 A 51.484 51.484 0 0 0 364.128 47.731 A 42.198 42.198 0 0 0 364.4 43 Q 364.4 37.7 362.55 35.7 Q 360.7 33.7 357.5 33.7 A 6.848 6.848 0 0 0 354.879 34.243 Q 353.983 34.612 353.079 35.231 A 11.892 11.892 0 0 0 353.05 35.25 A 15.843 15.843 0 0 0 350.73 37.222 A 21.734 21.734 0 0 0 348.8 39.5 A 38.106 38.106 0 0 0 346.514 42.989 A 47.948 47.948 0 0 0 345.05 45.7 Q 343.3 49.2 342 53.1 Q 340.7 57 340 61.05 Q 339.3 65.1 339.3 68.8 Q 339.3 74.4 341.1 76.7 A 6.22 6.22 0 0 0 342.797 78.232 A 5.544 5.544 0 0 0 345.7 79 Z M 124 58.2 L 93.1 58.2 L 95.4 49.9 L 126.3 49.9 L 124 58.2 Z M 42.8 12.6 Q 40.3 12.6 38.45 10.9 Q 36.6 9.2 36.6 6.5 Q 36.6 3.8 38.4 1.9 Q 40.2 0 42.8 0 A 6.734 6.734 0 0 1 45.114 0.384 A 5.888 5.888 0 0 1 47.4 1.9 Q 49.2 3.8 49.2 6.4 A 5.811 5.811 0 0 1 47.432 10.673 A 7.14 7.14 0 0 1 47.3 10.8 Q 45.4 12.6 42.8 12.6 Z M 243.6 12.6 Q 241.1 12.6 239.25 10.9 Q 237.4 9.2 237.4 6.5 Q 237.4 3.8 239.2 1.9 Q 241 0 243.6 0 A 6.734 6.734 0 0 1 245.914 0.384 A 5.888 5.888 0 0 1 248.2 1.9 Q 250 3.8 250 6.4 A 5.811 5.811 0 0 1 248.232 10.673 A 7.14 7.14 0 0 1 248.1 10.8 Q 246.2 12.6 243.6 12.6 Z" vector-effect="non-scaling-stroke"/></g></svg>