<svg width="326.186" height="71.35" viewBox="0 0 326.186 71.35" xmlns="http://www.w3.org/2000/svg"><g id="svgGroup" stroke-linecap="round" fill-rule="evenodd" font-size="9pt" stroke="#000" stroke-width="0.25mm" fill="#fff" style="stroke:#fff;stroke-width:0.25mm;fill:#fff"><path d="M 159.231 31.035 L 158.458 31.035 Q 155.815 31.035 155.815 28.424 A 7.829 7.829 0 0 0 155.618 26.61 A 5.089 5.089 0 0 0 153.979 23.848 A 5.367 5.367 0 0 0 151.688 22.683 Q 150.883 22.483 149.938 22.464 A 9.973 9.973 0 0 0 149.741 22.463 A 10.673 10.673 0 0 0 147.876 22.617 Q 146.429 22.873 145.342 23.558 A 9.06 9.06 0 0 0 142.506 26.362 A 13.46 13.46 0 0 0 140.63 31.344 A 18.082 18.082 0 0 0 140.379 34.419 Q 140.379 39.196 141.956 42.186 A 8.649 8.649 0 0 0 145.729 45.956 A 9.041 9.041 0 0 0 149.433 46.939 A 10.727 10.727 0 0 0 150.015 46.955 A 17.794 17.794 0 0 0 151.533 46.894 Q 152.888 46.777 153.882 46.439 Q 155.396 45.923 156.589 45.311 Q 157.781 44.699 158.667 44.183 A 5.774 5.774 0 0 1 159.142 43.934 Q 159.631 43.707 160.007 43.673 A 1.423 1.423 0 0 1 160.134 43.668 A 2.008 2.008 0 0 1 161.712 44.383 A 2.849 2.849 0 0 1 161.971 44.731 L 162.68 45.923 A 3.96 3.96 0 0 1 163.006 46.635 A 2.855 2.855 0 0 1 163.163 47.551 Q 163.163 48.229 162.687 48.956 A 4.415 4.415 0 0 1 162.519 49.194 A 6.02 6.02 0 0 1 161.656 50.109 A 8.047 8.047 0 0 1 160.794 50.757 A 13.789 13.789 0 0 1 159.404 51.554 A 17.323 17.323 0 0 1 158.329 52.047 A 25.093 25.093 0 0 1 155.461 53.046 Q 152.385 53.87 149.54 53.87 A 17.867 17.867 0 0 1 142.506 52.465 A 15.674 15.674 0 0 1 133.776 43.417 A 20.903 20.903 0 0 1 133.45 42.54 A 22.13 22.13 0 0 1 132.4 37.797 A 28.241 28.241 0 0 1 132.226 34.612 A 25.27 25.27 0 0 1 132.573 30.332 A 19.665 19.665 0 0 1 133.531 26.749 A 18.127 18.127 0 0 1 135.544 22.836 A 15.637 15.637 0 0 1 137.156 20.851 A 16.079 16.079 0 0 1 147.347 16.009 A 22.127 22.127 0 0 1 149.692 15.888 A 20.892 20.892 0 0 1 153.787 16.264 Q 156.175 16.742 158.021 17.826 A 10.983 10.983 0 0 1 160.166 19.465 Q 163.228 22.527 163.228 27.135 A 5.463 5.463 0 0 1 163.024 28.696 Q 162.326 31.035 159.231 31.035 Z M 41.54 30.713 L 45.021 32.163 Q 48.268 33.576 49.895 34.779 A 7.393 7.393 0 0 1 50.725 35.482 A 10.379 10.379 0 0 1 52.842 38.547 A 9.304 9.304 0 0 1 53.625 42.346 Q 53.625 47.245 50.273 50.403 A 12.056 12.056 0 0 1 45.454 53.094 Q 43.586 53.656 41.341 53.801 A 24.927 24.927 0 0 1 39.735 53.851 A 28.668 28.668 0 0 1 35.925 53.615 Q 31.773 53.057 29.326 51.176 A 8.749 8.749 0 0 1 28.661 50.625 Q 27.984 50 27.747 49.441 A 1.492 1.492 0 0 1 27.618 48.856 A 4.945 4.945 0 0 1 27.723 47.819 A 4.032 4.032 0 0 1 27.989 47.003 A 23.305 23.305 0 0 1 28.298 46.346 Q 28.583 45.764 28.956 45.069 A 2.76 2.76 0 0 1 29.324 44.532 A 1.607 1.607 0 0 1 30.567 43.958 A 2.61 2.61 0 0 1 31.513 44.146 Q 31.88 44.288 32.262 44.538 A 5.878 5.878 0 0 1 32.726 44.876 Q 33.87 45.795 35.868 46.52 Q 37.866 47.245 39.896 47.245 Q 45.883 47.245 46.077 43.353 A 5.324 5.324 0 0 0 46.084 43.088 A 3.04 3.04 0 0 0 45.286 41.068 Q 44.41 40.047 42.571 39.22 Q 41.089 38.544 39.333 37.963 Q 37.576 37.383 35.965 36.578 A 26.681 26.681 0 0 1 33.305 35.057 A 24.401 24.401 0 0 1 32.952 34.821 A 11.916 11.916 0 0 1 30.649 32.798 A 11.167 11.167 0 0 1 30.519 32.646 A 9.145 9.145 0 0 1 28.589 28.391 A 12.696 12.696 0 0 1 28.392 26.104 A 9.27 9.27 0 0 1 29.269 22.027 Q 30.272 19.946 32.42 18.434 A 13.518 13.518 0 0 1 37.932 16.169 A 18.453 18.453 0 0 1 41.218 15.888 A 23.791 23.791 0 0 1 45.318 16.223 Q 47.693 16.638 49.634 17.571 A 13.819 13.819 0 0 1 50.596 18.08 Q 51.313 18.51 51.631 19.01 A 1.544 1.544 0 0 1 51.885 19.852 A 6.246 6.246 0 0 1 51.707 21.29 Q 51.555 21.933 51.272 22.624 A 11.334 11.334 0 0 1 51.127 22.962 Q 50.37 24.654 49.355 24.654 A 4.241 4.241 0 0 1 48.19 24.498 A 3.71 3.71 0 0 1 47.518 24.235 A 53.49 53.49 0 0 0 46.783 23.867 Q 46.387 23.673 46.036 23.51 Q 45.375 23.204 44.634 23.01 A 12.333 12.333 0 0 0 43.176 22.663 A 9.022 9.022 0 0 0 41.653 22.527 A 16.081 16.081 0 0 0 40.849 22.546 Q 40.025 22.587 39.45 22.719 A 5.331 5.331 0 0 0 39.445 22.72 A 5.13 5.13 0 0 0 38.279 23.137 A 4.635 4.635 0 0 0 37.931 23.333 A 4.638 4.638 0 0 0 37.136 23.93 Q 36.287 24.74 36.287 25.782 A 5.12 5.12 0 0 0 36.352 26.622 Q 36.494 27.474 36.948 28.005 A 5.288 5.288 0 0 0 37.677 28.702 Q 38.152 29.081 38.769 29.423 A 19.441 19.441 0 0 0 39.87 29.987 Q 40.634 30.35 41.54 30.713 Z M 112.986 30.713 L 116.467 32.163 Q 119.714 33.576 121.341 34.779 A 7.393 7.393 0 0 1 122.171 35.482 A 10.379 10.379 0 0 1 124.288 38.547 A 9.304 9.304 0 0 1 125.071 42.346 Q 125.071 47.245 121.72 50.403 A 12.056 12.056 0 0 1 116.9 53.094 Q 115.033 53.656 112.787 53.801 A 24.927 24.927 0 0 1 111.182 53.851 A 28.668 28.668 0 0 1 107.372 53.615 Q 103.22 53.057 100.772 51.176 A 8.749 8.749 0 0 1 100.107 50.625 Q 99.43 50 99.193 49.441 A 1.492 1.492 0 0 1 99.064 48.856 A 4.945 4.945 0 0 1 99.169 47.819 A 4.032 4.032 0 0 1 99.435 47.003 A 23.305 23.305 0 0 1 99.745 46.346 Q 100.029 45.764 100.402 45.069 A 2.76 2.76 0 0 1 100.77 44.532 A 1.607 1.607 0 0 1 102.013 43.958 A 2.61 2.61 0 0 1 102.96 44.146 Q 103.327 44.288 103.709 44.538 A 5.878 5.878 0 0 1 104.172 44.876 Q 105.316 45.795 107.314 46.52 Q 109.313 47.245 111.343 47.245 Q 117.33 47.245 117.524 43.353 A 5.324 5.324 0 0 0 117.53 43.088 A 3.04 3.04 0 0 0 116.732 41.068 Q 115.856 40.047 114.018 39.22 Q 112.535 38.544 110.779 37.963 Q 109.022 37.383 107.411 36.578 A 26.681 26.681 0 0 1 104.752 35.057 A 24.401 24.401 0 0 1 104.398 34.821 A 11.916 11.916 0 0 1 102.095 32.798 A 11.167 11.167 0 0 1 101.965 32.646 A 9.145 9.145 0 0 1 100.035 28.391 A 12.696 12.696 0 0 1 99.838 26.104 A 9.27 9.27 0 0 1 100.716 22.027 Q 101.718 19.946 103.866 18.434 A 13.518 13.518 0 0 1 109.378 16.169 A 18.453 18.453 0 0 1 112.664 15.888 A 23.791 23.791 0 0 1 116.765 16.223 Q 119.139 16.638 121.08 17.571 A 13.819 13.819 0 0 1 122.042 18.08 Q 122.759 18.51 123.077 19.01 A 1.544 1.544 0 0 1 123.331 19.852 A 6.246 6.246 0 0 1 123.153 21.29 Q 123.001 21.933 122.719 22.624 A 11.334 11.334 0 0 1 122.574 22.962 Q 121.816 24.654 120.801 24.654 A 4.241 4.241 0 0 1 119.636 24.498 A 3.71 3.71 0 0 1 118.964 24.235 A 53.49 53.49 0 0 0 118.229 23.867 Q 117.833 23.673 117.482 23.51 Q 116.821 23.204 116.08 23.01 A 12.333 12.333 0 0 0 114.623 22.663 A 9.022 9.022 0 0 0 113.099 22.527 A 16.081 16.081 0 0 0 112.295 22.546 Q 111.471 22.587 110.896 22.719 A 5.331 5.331 0 0 0 110.892 22.72 A 5.13 5.13 0 0 0 109.725 23.137 A 4.635 4.635 0 0 0 109.377 23.333 A 4.638 4.638 0 0 0 108.582 23.93 Q 107.733 24.74 107.733 25.782 A 5.12 5.12 0 0 0 107.798 26.622 Q 107.94 27.474 108.394 28.005 A 5.288 5.288 0 0 0 109.123 28.702 Q 109.599 29.081 110.215 29.423 A 19.441 19.441 0 0 0 111.316 29.987 Q 112.08 30.35 112.986 30.713 Z M 206.443 30.713 L 209.924 32.163 Q 213.172 33.576 214.798 34.779 A 7.393 7.393 0 0 1 215.628 35.482 A 10.379 10.379 0 0 1 217.745 38.547 A 9.304 9.304 0 0 1 218.528 42.346 Q 218.528 47.245 215.177 50.403 A 12.056 12.056 0 0 1 210.357 53.094 Q 208.49 53.656 206.244 53.801 A 24.927 24.927 0 0 1 204.639 53.851 A 28.668 28.668 0 0 1 200.829 53.615 Q 196.677 53.057 194.229 51.176 A 8.749 8.749 0 0 1 193.564 50.625 Q 192.888 50 192.65 49.441 A 1.492 1.492 0 0 1 192.521 48.856 A 4.945 4.945 0 0 1 192.626 47.819 A 4.032 4.032 0 0 1 192.892 47.003 A 23.305 23.305 0 0 1 193.202 46.346 Q 193.486 45.764 193.859 45.069 A 2.76 2.76 0 0 1 194.227 44.532 A 1.607 1.607 0 0 1 195.47 43.958 A 2.61 2.61 0 0 1 196.417 44.146 Q 196.784 44.288 197.166 44.538 A 5.878 5.878 0 0 1 197.629 44.876 Q 198.773 45.795 200.771 46.52 Q 202.77 47.245 204.8 47.245 Q 210.787 47.245 210.981 43.353 A 5.324 5.324 0 0 0 210.987 43.088 A 3.04 3.04 0 0 0 210.19 41.068 Q 209.313 40.047 207.475 39.22 Q 205.992 38.544 204.236 37.963 Q 202.479 37.383 200.868 36.578 A 26.681 26.681 0 0 1 198.209 35.057 A 24.401 24.401 0 0 1 197.855 34.821 A 11.916 11.916 0 0 1 195.552 32.798 A 11.167 11.167 0 0 1 195.422 32.646 A 9.145 9.145 0 0 1 193.492 28.391 A 12.696 12.696 0 0 1 193.295 26.104 A 9.27 9.27 0 0 1 194.173 22.027 Q 195.175 19.946 197.323 18.434 A 13.518 13.518 0 0 1 202.835 16.169 A 18.453 18.453 0 0 1 206.121 15.888 A 23.791 23.791 0 0 1 210.222 16.223 Q 212.596 16.638 214.537 17.571 A 13.819 13.819 0 0 1 215.499 18.08 Q 216.216 18.51 216.534 19.01 A 1.544 1.544 0 0 1 216.788 19.852 A 6.246 6.246 0 0 1 216.61 21.29 Q 216.458 21.933 216.176 22.624 A 11.334 11.334 0 0 1 216.031 22.962 Q 215.273 24.654 214.258 24.654 A 4.241 4.241 0 0 1 213.093 24.498 A 3.71 3.71 0 0 1 212.421 24.235 A 53.49 53.49 0 0 0 211.686 23.867 Q 211.29 23.673 210.939 23.51 Q 210.278 23.204 209.537 23.01 A 12.333 12.333 0 0 0 208.08 22.663 A 9.022 9.022 0 0 0 206.556 22.527 A 16.081 16.081 0 0 0 205.752 22.546 Q 204.928 22.587 204.353 22.719 A 5.331 5.331 0 0 0 204.349 22.72 A 5.13 5.13 0 0 0 203.182 23.137 A 4.635 4.635 0 0 0 202.834 23.333 A 4.638 4.638 0 0 0 202.039 23.93 Q 201.19 24.74 201.19 25.782 A 5.12 5.12 0 0 0 201.255 26.622 Q 201.397 27.474 201.851 28.005 A 5.288 5.288 0 0 0 202.58 28.702 Q 203.056 29.081 203.672 29.423 A 19.441 19.441 0 0 0 204.773 29.987 Q 205.537 30.35 206.443 30.713 Z M 239.443 30.713 L 242.924 32.163 Q 246.172 33.576 247.798 34.779 A 7.393 7.393 0 0 1 248.628 35.482 A 10.379 10.379 0 0 1 250.745 38.547 A 9.304 9.304 0 0 1 251.528 42.346 Q 251.528 47.245 248.177 50.403 A 12.056 12.056 0 0 1 243.357 53.094 Q 241.49 53.656 239.244 53.801 A 24.927 24.927 0 0 1 237.639 53.851 A 28.668 28.668 0 0 1 233.829 53.615 Q 229.677 53.057 227.229 51.176 A 8.749 8.749 0 0 1 226.564 50.625 Q 225.888 50 225.65 49.441 A 1.492 1.492 0 0 1 225.521 48.856 A 4.945 4.945 0 0 1 225.626 47.819 A 4.032 4.032 0 0 1 225.892 47.003 A 23.305 23.305 0 0 1 226.202 46.346 Q 226.486 45.764 226.859 45.069 A 2.76 2.76 0 0 1 227.227 44.532 A 1.607 1.607 0 0 1 228.47 43.958 A 2.61 2.61 0 0 1 229.417 44.146 Q 229.784 44.288 230.166 44.538 A 5.878 5.878 0 0 1 230.629 44.876 Q 231.773 45.795 233.771 46.52 Q 235.77 47.245 237.8 47.245 Q 243.787 47.245 243.981 43.353 A 5.324 5.324 0 0 0 243.987 43.088 A 3.04 3.04 0 0 0 243.19 41.068 Q 242.313 40.047 240.475 39.22 Q 238.992 38.544 237.236 37.963 Q 235.479 37.383 233.868 36.578 A 26.681 26.681 0 0 1 231.209 35.057 A 24.401 24.401 0 0 1 230.855 34.821 A 11.916 11.916 0 0 1 228.552 32.798 A 11.167 11.167 0 0 1 228.422 32.646 A 9.145 9.145 0 0 1 226.492 28.391 A 12.696 12.696 0 0 1 226.295 26.104 A 9.27 9.27 0 0 1 227.173 22.027 Q 228.175 19.946 230.323 18.434 A 13.518 13.518 0 0 1 235.835 16.169 A 18.453 18.453 0 0 1 239.121 15.888 A 23.791 23.791 0 0 1 243.222 16.223 Q 245.596 16.638 247.537 17.571 A 13.819 13.819 0 0 1 248.499 18.08 Q 249.216 18.51 249.534 19.01 A 1.544 1.544 0 0 1 249.788 19.852 A 6.246 6.246 0 0 1 249.61 21.29 Q 249.458 21.933 249.176 22.624 A 11.334 11.334 0 0 1 249.031 22.962 Q 248.273 24.654 247.258 24.654 A 4.241 4.241 0 0 1 246.093 24.498 A 3.71 3.71 0 0 1 245.421 24.235 A 53.49 53.49 0 0 0 244.686 23.867 Q 244.29 23.673 243.939 23.51 Q 243.278 23.204 242.537 23.01 A 12.333 12.333 0 0 0 241.08 22.663 A 9.022 9.022 0 0 0 239.556 22.527 A 16.081 16.081 0 0 0 238.752 22.546 Q 237.928 22.587 237.353 22.719 A 5.331 5.331 0 0 0 237.349 22.72 A 5.13 5.13 0 0 0 236.182 23.137 A 4.635 4.635 0 0 0 235.834 23.333 A 4.638 4.638 0 0 0 235.039 23.93 Q 234.19 24.74 234.19 25.782 A 5.12 5.12 0 0 0 234.255 26.622 Q 234.397 27.474 234.851 28.005 A 5.288 5.288 0 0 0 235.58 28.702 Q 236.056 29.081 236.672 29.423 A 19.441 19.441 0 0 0 237.773 29.987 Q 238.537 30.35 239.443 30.713 Z M 9.281 58.556 L 9.281 18.821 A 2.958 2.958 0 0 1 9.355 18.142 A 2.094 2.094 0 0 1 9.765 17.29 A 1.654 1.654 0 0 1 10.237 16.883 A 1.508 1.508 0 0 1 10.989 16.694 L 15.404 16.694 A 1.523 1.523 0 0 1 16.489 17.142 A 2.14 2.14 0 0 1 16.629 17.29 A 2.079 2.079 0 0 1 17.099 18.296 A 2.907 2.907 0 0 1 17.145 18.821 L 17.145 57.267 Q 17.145 64.099 14.373 67.805 A 8.366 8.366 0 0 1 8.301 71.294 A 10.799 10.799 0 0 1 7.187 71.35 A 13.774 13.774 0 0 1 4.777 71.152 Q 2.652 70.774 1.192 69.674 Q 0 68.675 0 67.612 Q 0 67.135 0.345 65.925 A 26.026 26.026 0 0 1 0.403 65.727 Q 0.721 64.645 1.019 64.056 A 3.216 3.216 0 0 1 1.176 63.777 A 1.483 1.483 0 0 1 1.437 63.465 A 1.028 1.028 0 0 1 2.143 63.197 A 2.643 2.643 0 0 1 2.598 63.234 Q 2.871 63.282 3.095 63.39 A 1.622 1.622 0 0 1 3.158 63.422 A 8.708 8.708 0 0 1 3.891 63.867 A 9.667 9.667 0 0 1 3.996 63.938 Q 5.066 64.592 5.834 64.643 A 1.931 1.931 0 0 0 5.962 64.647 A 2.726 2.726 0 0 0 8.564 62.903 Q 9.168 61.627 9.263 59.419 A 19.985 19.985 0 0 0 9.281 58.556 Z M 305.959 16.694 L 307.699 16.694 A 3.138 3.138 0 0 1 308.751 16.861 Q 309.715 17.202 310.213 18.241 Q 311.276 20.495 311.759 24.455 A 26.511 26.511 0 0 1 311.76 24.461 A 0.126 0.126 0 0 0 311.762 24.484 Q 311.769 24.523 311.804 24.525 A 0.068 0.068 0 0 0 311.808 24.525 A 0.024 0.024 0 0 0 311.822 24.508 Q 311.868 24.406 311.978 23.696 A 41.91 41.91 0 0 0 312.018 23.429 A 6.015 6.015 0 0 1 312.201 22.617 Q 312.323 22.201 312.511 21.731 A 15.374 15.374 0 0 1 312.952 20.738 A 10.213 10.213 0 0 1 313.996 19.02 A 8.559 8.559 0 0 1 314.854 18.047 A 7.84 7.84 0 0 1 320.332 15.889 A 10.115 10.115 0 0 1 320.461 15.888 A 17.726 17.726 0 0 1 322.173 15.965 Q 323.889 16.132 324.932 16.665 A 3.576 3.576 0 0 1 325.617 17.113 Q 326.294 17.661 326.165 18.628 L 325.649 22.688 A 2.74 2.74 0 0 1 325.492 23.358 Q 325.114 24.332 323.974 24.332 Q 323.46 24.332 322.776 24.179 A 10.259 10.259 0 0 1 322.233 24.042 Q 320.235 23.526 319.075 23.526 Q 317.915 23.526 316.626 24.541 A 9.393 9.393 0 0 0 314.703 26.61 A 10.895 10.895 0 0 0 314.402 27.071 Q 312.501 30.229 312.501 33.806 L 312.501 50.919 A 2.611 2.611 0 0 1 312.399 51.665 A 2.115 2.115 0 0 1 311.985 52.433 A 1.671 1.671 0 0 1 311.011 52.997 A 2.529 2.529 0 0 1 310.503 53.046 L 306.765 53.046 A 2.764 2.764 0 0 1 306.145 52.98 Q 305.56 52.846 305.202 52.433 A 2.157 2.157 0 0 1 304.684 51.2 A 2.843 2.843 0 0 1 304.67 50.919 L 304.67 28.714 A 137.526 137.526 0 0 0 304.652 26.417 Q 304.6 23.308 304.394 21.795 A 8.953 8.953 0 0 0 304.299 21.222 Q 303.939 19.452 303.929 19.037 A 0.938 0.938 0 0 1 303.929 19.014 Q 303.929 17.011 305.442 16.737 A 2.906 2.906 0 0 1 305.959 16.694 Z M 259.198 29.775 A 21.808 21.808 0 0 0 258.65 34.741 A 25.064 25.064 0 0 0 259.001 39.016 A 17.855 17.855 0 0 0 263.613 48.469 A 16.145 16.145 0 0 0 270.789 52.997 A 20.35 20.35 0 0 0 276.826 53.851 A 22.701 22.701 0 0 0 277.431 53.843 A 17.178 17.178 0 0 0 289.749 48.598 A 17.627 17.627 0 0 0 294.101 41.267 A 22.15 22.15 0 0 0 295.002 34.805 A 31.821 31.821 0 0 0 294.99 33.928 Q 294.766 25.818 290.361 21.077 A 15.603 15.603 0 0 0 282.366 16.501 A 23.569 23.569 0 0 0 276.826 15.888 A 22.805 22.805 0 0 0 275.981 15.904 A 17.237 17.237 0 0 0 263.903 21.077 A 16.743 16.743 0 0 0 262.608 22.553 A 18.456 18.456 0 0 0 260.052 27.055 A 18.73 18.73 0 0 0 259.198 29.775 Z M 180.404 18.821 L 180.404 44.183 Q 180.404 46.387 181.809 46.468 A 1.899 1.899 0 0 0 181.919 46.471 A 2.199 2.199 0 0 0 182.395 46.416 Q 182.717 46.344 183.079 46.181 A 16.41 16.41 0 0 1 183.59 45.968 Q 184.435 45.633 184.787 45.633 Q 185.341 45.633 185.723 46.26 A 2.782 2.782 0 0 1 185.883 46.568 L 186.882 48.824 A 2.987 2.987 0 0 1 187.057 49.287 Q 187.14 49.581 187.14 49.855 Q 187.14 51.241 184.755 52.433 A 10.864 10.864 0 0 1 182.441 53.321 A 8.774 8.774 0 0 1 180.292 53.593 Q 178.826 53.593 177.75 53.38 A 6.635 6.635 0 0 1 176.763 53.11 A 5.222 5.222 0 0 1 174.507 51.499 Q 172.8 49.38 172.652 44.843 A 27.112 27.112 0 0 1 172.638 43.958 L 172.638 18.821 A 2.611 2.611 0 0 1 172.74 18.075 A 2.115 2.115 0 0 1 173.153 17.306 A 1.898 1.898 0 0 1 173.567 16.933 A 1.456 1.456 0 0 1 174.378 16.694 L 178.696 16.694 A 1.471 1.471 0 0 1 179.812 17.18 A 1.96 1.96 0 0 1 179.921 17.306 A 2.223 2.223 0 0 1 180.37 18.362 A 2.983 2.983 0 0 1 180.404 18.821 Z M 269.011 26.539 Q 267.803 28.328 267.255 30.6 A 19.591 19.591 0 0 0 266.707 35.208 A 15.838 15.838 0 0 0 267.335 39.688 A 12.054 12.054 0 0 0 268.807 42.917 A 11.222 11.222 0 0 0 269.221 43.506 A 8.915 8.915 0 0 0 275.749 47.123 A 12.376 12.376 0 0 0 276.955 47.18 Q 282.015 47.18 284.625 43.571 A 10.978 10.978 0 0 0 286.29 40.107 Q 286.945 37.86 286.945 34.966 Q 286.945 26.813 281.596 23.719 A 8.251 8.251 0 0 0 279.048 22.792 A 11.523 11.523 0 0 0 276.842 22.591 A 11.966 11.966 0 0 0 274.721 22.77 Q 273.276 23.03 272.137 23.671 Q 270.22 24.751 269.011 26.539 Z M 64.518 35.095 L 64.518 32.034 A 1.387 1.387 0 0 1 64.963 31.003 A 1.861 1.861 0 0 1 65.033 30.938 A 1.812 1.812 0 0 1 66.153 30.491 A 2.336 2.336 0 0 1 66.29 30.487 L 85.884 30.487 A 1.863 1.863 0 0 1 87.157 30.954 A 1.672 1.672 0 0 1 87.5 31.361 A 1.366 1.366 0 0 1 87.688 32.066 L 87.688 35.128 Q 87.688 35.772 87.157 36.223 A 1.892 1.892 0 0 1 85.941 36.674 A 2.396 2.396 0 0 1 85.884 36.674 L 66.29 36.674 A 1.95 1.95 0 0 1 65.605 36.558 A 1.759 1.759 0 0 1 65.033 36.207 Q 64.518 35.74 64.518 35.095 Z M 9.384 8.965 A 5.148 5.148 0 0 0 13.116 10.474 A 5.923 5.923 0 0 0 13.125 10.474 A 5.109 5.109 0 0 0 16.822 8.96 A 4.886 4.886 0 0 0 18.029 7.166 A 5.395 5.395 0 0 0 18.369 5.221 A 5.787 5.787 0 0 0 18.353 4.788 A 4.836 4.836 0 0 0 17.95 3.159 A 6.814 6.814 0 0 0 17.603 2.472 Q 16.166 0.001 13.116 0.001 A 6.627 6.627 0 0 0 12.803 0.008 A 5.004 5.004 0 0 0 9.378 1.483 Q 7.831 3.03 7.831 5.221 A 6.476 6.476 0 0 0 7.833 5.362 A 4.934 4.934 0 0 0 9.378 8.96 A 6.29 6.29 0 0 0 9.384 8.965 Z M 172.902 8.965 A 5.148 5.148 0 0 0 176.634 10.474 A 5.923 5.923 0 0 0 176.642 10.474 A 5.109 5.109 0 0 0 180.34 8.96 A 4.886 4.886 0 0 0 181.547 7.166 A 5.395 5.395 0 0 0 181.887 5.221 A 5.787 5.787 0 0 0 181.871 4.788 A 4.836 4.836 0 0 0 181.468 3.159 A 6.814 6.814 0 0 0 181.12 2.472 Q 179.684 0.001 176.634 0.001 A 6.627 6.627 0 0 0 176.32 0.008 A 5.004 5.004 0 0 0 172.896 1.483 Q 171.349 3.03 171.349 5.221 A 6.476 6.476 0 0 0 171.35 5.362 A 4.934 4.934 0 0 0 172.896 8.96 A 6.29 6.29 0 0 0 172.902 8.965 Z" vector-effect="non-scaling-stroke"/></g></svg>